<?xml version="1.0" encoding="iso-8859-1"?>
<!-- Generator: Adobe Illustrator 17.1.0, SVG Export Plug-In . SVG Version: 6.00 Build 0)  -->
<!DOCTYPE svg PUBLIC "-//W3C//DTD SVG 1.1//EN" "http://www.w3.org/Graphics/SVG/1.1/DTD/svg11.dtd">
<svg version="1.1" id="Capa_1" xmlns="http://www.w3.org/2000/svg" xmlns:xlink="http://www.w3.org/1999/xlink" x="0px" y="0px"
	 viewBox="0 0 269.027 269.027" style="color: #FF3900;" xml:space="preserve">
<g>
	<path d="M205.028,0.152c-23.069,0-42.291,16.784-46.097,38.781h-48.809C106.379,16.861,87.121,0,63.999,0
		C38.203,0,17.217,20.986,17.217,46.782v150.23c0,20.056,12.774,38.583,35.969,52.168c21.85,12.798,50.733,19.846,81.327,19.846
		c30.594,0,59.477-7.048,81.327-19.846c23.195-13.585,35.969-32.112,35.969-52.168V46.933
		C251.81,21.138,230.823,0.152,205.028,0.152z M235.81,197.012c0,30.363-46.388,56.015-101.296,56.015
		S33.217,227.375,33.217,197.012V46.782C33.217,29.809,47.026,16,63.999,16c16.973,0,30.782,13.809,30.782,30.782v0.152
		c0,4.419,3.581,8,8,8h63.466c4.418,0,8-3.581,8-8c0-16.973,13.809-30.781,30.782-30.781c16.973,0,30.782,13.809,30.782,30.781
		V197.012z" fill="red"/>
	<path d="M188.705,146.538c-14.596-9.193-33.842-14.257-54.192-14.257c-20.35,0-39.595,5.063-54.191,14.257
		c-15.746,9.918-24.417,23.491-24.417,38.218c0,14.727,8.671,28.3,24.417,38.218c14.597,9.194,33.842,14.258,54.192,14.258
		c20.35,0,39.596-5.063,54.192-14.258c15.746-9.918,24.417-23.49,24.417-38.218C213.122,170.028,204.451,156.456,188.705,146.538z
		 M134.513,221.231c-33.938,0-62.609-16.704-62.609-36.476c0-11.514,9.734-21.98,24.559-28.72c-0.389,1.583-0.604,3.213-0.604,4.887
		c0,15.313,16.979,27.308,38.653,27.308s38.653-11.995,38.653-27.308c0-1.673-0.214-3.304-0.604-4.887
		c14.825,6.74,24.559,17.206,24.559,28.72C197.122,204.527,168.451,221.231,134.513,221.231z" fill="red"/>
	<circle cx="79.099" cy="103.129" r="20.33" fill="red"/>
	<circle cx="189.928" cy="103.129" r="20.33" fill="red"/>
</g>
<g>
</g>
<g>
</g>
<g>
</g>
<g>
</g>
<g>
</g>
<g>
</g>
<g>
</g>
<g>
</g>
<g>
</g>
<g>
</g>
<g>
</g>
<g>
</g>
<g>
</g>
<g>
</g>
<g>
</g>
</svg>
